<svg width="62" height="64" viewBox="0 0 125 32" fill="none" xmlns="http://www.w3.org/2000/svg">
<path fill-rule="evenodd" clip-rule="evenodd" d="M0 2.47565C0 1.11405 1.07296 0.0001297 2.47552 0.0001297C3.8784 0.0001297 4.99264 1.11405 4.99264 2.47565V11.8827C6.3952 9.86125 8.41728 8.08685 11.8003 8.08685C16.7104 8.08685 19.5571 11.388 19.5571 16.4212V28.0564C19.5571 29.4593 18.4845 30.5323 17.0816 30.5323C15.6787 30.5323 14.5648 29.4593 14.5648 28.0564V17.9483C14.5648 14.5646 12.8733 12.6257 9.9024 12.6257C7.0144 12.6257 4.99264 14.6472 4.99264 18.0305V28.0564C4.99264 29.4593 3.8784 30.5323 2.47552 30.5323C1.11392 30.5323 0 29.4593 0 28.0564V2.47565Z" fill="#122D31"/>
<path fill-rule="evenodd" clip-rule="evenodd" d="M49.8231 24.3019V12.8318H48.9981C47.8017 12.8318 46.8525 11.8827 46.8525 10.6862C46.8525 9.48973 47.8017 8.54093 48.9981 8.54093H49.8231V4.82765C49.8231 3.46605 50.937 2.35181 52.3399 2.35181C53.7015 2.35181 54.8157 3.46605 54.8157 4.82765V8.54093H58.7354C59.9319 8.54093 60.9223 9.48973 60.9223 10.6862C60.9223 11.8827 59.9319 12.8318 58.7354 12.8318H54.8157V23.5182C54.8157 25.4571 55.8058 26.2414 57.4973 26.2414C58.0749 26.2414 58.5703 26.1176 58.7354 26.1176C59.8493 26.1176 60.8397 27.0254 60.8397 28.1803C60.8397 29.0881 60.2205 29.8308 59.5191 30.1198C58.4465 30.491 57.4151 30.6971 56.0948 30.6971C52.4225 30.6971 49.8231 29.0881 49.8231 24.3019Z" fill="#122D31"/>
<path fill-rule="evenodd" clip-rule="evenodd" d="M77.1782 17.9069C76.848 14.6883 74.9501 12.1715 71.6493 12.1715C68.5961 12.1715 66.4509 14.5235 65.9968 17.9069H77.1782ZM72.2269 30.8208C65.9142 30.8208 61.0454 26.2413 61.0454 19.5158V19.4336C61.0454 13.2032 65.4605 8.08704 71.6909 8.08704C78.6224 8.08704 82.0467 13.7805 82.0467 18.8144C82.0467 20.2173 80.974 21.2074 79.695 21.2074H66.0381C66.5744 24.7558 69.0915 26.7363 72.3094 26.7363C74.4137 26.7363 76.0643 25.9936 77.4669 24.8384C77.8384 24.5498 78.1683 24.3846 78.7459 24.3846C79.8601 24.3846 80.7264 25.2509 80.7264 26.4064C80.7264 27.0253 80.4377 27.5616 80.0662 27.9328C78.0857 29.7072 75.6105 30.8208 72.2269 30.8208Z" fill="#122D31"/>
<path fill-rule="evenodd" clip-rule="evenodd" d="M83.4897 19.5572V19.4746C83.4897 13.2855 88.276 8.08678 94.8363 8.08678C98.2609 8.08678 100.613 9.20102 102.47 10.81C102.8 11.0989 103.253 11.7178 103.253 12.5431C103.253 13.8221 102.222 14.8122 100.943 14.8122C100.324 14.8122 99.7877 14.5645 99.4574 14.3172C98.1784 13.2442 96.7758 12.4605 94.795 12.4605C91.164 12.4605 88.4824 15.5962 88.4824 19.3921V19.4746C88.4824 23.353 91.164 26.4474 95.0014 26.4474C96.9819 26.4474 98.5086 25.6634 99.8699 24.5085C100.159 24.2605 100.654 23.9719 101.232 23.9719C102.428 23.9719 103.377 24.9623 103.377 26.1588C103.377 26.8186 103.129 27.3553 102.676 27.7265C100.736 29.5831 98.3848 30.8209 94.7537 30.8209C88.276 30.8209 83.4897 25.7463 83.4897 19.5572Z" fill="#122D31"/>
<path fill-rule="evenodd" clip-rule="evenodd" d="M105.357 2.47565C105.357 1.11405 106.43 0.0001297 107.832 0.0001297C109.235 0.0001297 110.35 1.11405 110.35 2.47565V11.8827C111.752 9.86125 113.774 8.08685 117.157 8.08685C122.067 8.08685 124.914 11.388 124.914 16.4212V28.0564C124.914 29.4593 123.841 30.5323 122.439 30.5323C121.036 30.5323 119.922 29.4593 119.922 28.0564V17.9483C119.922 14.5646 118.23 12.6257 115.259 12.6257C112.371 12.6257 110.35 14.6472 110.35 18.0305V28.0564C110.35 29.4593 109.235 30.5323 107.832 30.5323C106.471 30.5323 105.357 29.4593 105.357 28.0564V2.47565Z" fill="#122D31"/>
<path fill-rule="evenodd" clip-rule="evenodd" d="M45.1816 25.2091C44.8552 25.7713 44.4008 26.2043 43.8728 26.5089C42.8162 27.1192 41.4568 27.1678 40.3202 26.5112L40.307 26.5038C38.5317 25.4782 37.4398 23.5822 37.4434 21.5323L37.4446 20.7547L38.1413 20.3525C39.9144 19.3288 42.0987 19.3288 43.8715 20.3521C45.5781 21.3307 46.1598 23.5025 45.1816 25.2091Z" fill="#2697D4"/>
<path fill-rule="evenodd" clip-rule="evenodd" d="M30.333 15.8536L30.3327 16.6434L29.636 17.0456C27.8629 18.0693 25.6789 18.0693 23.9058 17.0459C22.1992 16.0674 21.6127 13.8875 22.5957 12.1886C23.5784 10.4901 25.7461 9.90032 27.4527 10.8789L27.4693 10.8885C29.2424 11.9131 30.334 13.8059 30.333 15.8536Z" fill="#FCB655"/>
<path fill-rule="evenodd" clip-rule="evenodd" d="M45.2709 12.3417C46.1496 14.0576 45.38 16.1734 43.7102 17.1372C42.0369 18.1033 39.9752 18.1049 38.3003 17.1411L37.4424 16.6473L37.444 15.6576C37.4465 13.7251 38.4785 11.9404 40.1521 10.9744L40.3217 10.8764C42.0795 9.86141 44.3339 10.512 45.2709 12.3417Z" fill="#00A79E"/>
<path fill-rule="evenodd" clip-rule="evenodd" d="M29.4771 20.2569L30.335 20.7507L30.3337 21.7407C30.3308 23.6729 29.2988 25.4575 27.6252 26.4236C25.9558 27.3875 23.7388 26.9964 22.6921 25.3775C21.5759 23.6508 22.1398 21.3737 23.8975 20.3587L24.0671 20.2611C25.7407 19.2947 27.8022 19.2931 29.4771 20.2569Z" fill="#F16A4B"/>
<path fill-rule="evenodd" clip-rule="evenodd" d="M37.4479 9.22704C37.4479 11.2741 36.3557 13.1659 34.5826 14.1896L33.8863 14.5918L33.2018 14.1973C31.4277 13.1742 30.3346 11.2824 30.334 9.23472V9.2152C30.3321 7.25264 31.9298 5.65776 33.8969 5.66416C35.8594 5.66192 37.4543 7.26 37.4479 9.22704Z" fill="#67B548"/>
<path fill-rule="evenodd" clip-rule="evenodd" d="M34.565 23.1938C36.3422 24.2158 37.4379 26.1096 37.4386 28.1598V28.1746C37.4386 29.4875 36.7173 30.6405 35.6526 31.2549C35.1323 31.5554 34.5304 31.7323 33.8802 31.7339C31.9131 31.7278 30.323 30.1381 30.3291 28.171C30.3291 26.1237 31.4213 24.2322 33.1944 23.2085L33.891 22.8062L34.565 23.1938Z" fill="#4666B0"/>
</svg>
