

<svg width="62" height="64" viewBox="0 0 125 32" fill="none" xmlns="http://www.w3.org/2000/svg">

<g transform="translate(0.000000,252.000000) scale(0.100000,-0.100000)"
fill-rule="#000000" stroke="none">
<path d="M1495 1986 c-47 -21 -74 -57 -85 -114 -5 -29 -16 -65 -24 -81 -32
-61 -114 -111 -185 -111 -14 0 -39 -16 -62 -39 -30 -30 -39 -47 -39 -72 0 -74
70 -137 138 -124 42 8 89 51 97 91 15 69 41 122 79 160 33 34 52 44 101 54 33
7 68 17 78 22 26 13 57 68 57 101 0 81 -86 143 -155 113z"/>
<path d="M2282 1533 l3 -48 103 -3 102 -3 0 -179 0 -180 60 0 60 0 0 180 0
180 105 0 105 0 0 50 0 50 -271 0 -270 0 3 -47z"/>
<path d="M2890 1350 l0 -230 240 0 240 0 0 50 0 50 -180 0 -180 0 0 45 0 45
100 0 100 0 0 50 0 50 -100 0 -100 0 0 40 0 40 175 0 175 0 0 45 0 45 -235 0
-235 0 0 -230z"/>
<path d="M3652 1548 c-11 -18 -68 -118 -127 -223 -59 -104 -109 -193 -112
-197 -2 -5 24 -8 59 -8 l63 0 25 48 25 47 135 3 135 2 27 -50 28 -50 66 0 c36
0 64 4 62 9 -1 6 -59 109 -128 230 l-125 220 -57 1 c-53 0 -57 -2 -76 -32z
m118 -170 c17 -32 30 -60 30 -63 0 -3 -36 -5 -81 -5 -44 0 -79 3 -77 8 13 29
62 119 71 130 12 15 14 13 57 -70z"/>
<path d="M4090 1350 l0 -230 50 0 49 0 3 143 3 142 89 -117 c49 -65 94 -118
102 -118 7 0 53 52 101 115 l88 115 3 -140 3 -140 54 0 55 0 0 230 0 230 -48
0 -47 0 -99 -130 c-54 -71 -100 -130 -101 -130 -1 0 -48 59 -104 130 l-102
130 -50 0 -49 0 0 -230z"/>
<path d="M1800 1363 c-28 -10 -59 -46 -70 -79 -15 -44 0 -91 40 -129 41 -39
40 -77 -4 -126 -19 -21 -38 -53 -41 -72 -12 -65 47 -137 112 -137 120 0 165
129 77 219 -31 30 -32 81 -3 107 70 63 64 170 -12 210 -28 14 -71 17 -99 7z"/>
<path d="M2099 1355 c-82 -45 -81 -168 2 -211 61 -31 132 -5 164 62 16 34 17
42 4 78 -25 72 -106 106 -170 71z"/>
<path d="M1174 1051 c-11 -5 -33 -23 -47 -41 -64 -75 -5 -190 97 -190 27 0 46
9 75 35 21 19 52 38 70 41 27 6 36 1 70 -33 48 -48 60 -84 37 -116 -9 -12 -28
-37 -41 -56 -29 -40 -31 -70 -9 -117 40 -84 167 -86 210 -3 26 51 18 93 -26
144 -22 25 -40 55 -40 65 0 11 13 34 29 52 39 46 51 71 51 112 0 69 -85 132
-150 111 -12 -4 -37 -21 -57 -38 -48 -43 -91 -42 -137 2 -36 35 -93 49 -132
32z"/>
<path d="M2285 970 c-3 -5 1 -10 9 -10 12 0 16 -11 16 -50 0 -27 5 -50 10 -50
6 0 10 23 10 50 0 28 5 50 10 50 6 0 10 5 10 10 0 6 -13 10 -29 10 -17 0 -33
-4 -36 -10z"/>
<path d="M2498 974 c-12 -11 -9 -102 3 -109 6 -4 11 -5 12 -4 6 11 -9 120 -15
113z"/>
<path d="M2851 923 c0 -35 2 -63 7 -63 4 0 6 21 4 48 -5 75 -10 82 -11 15z"/>
<path d="M2920 920 c0 -59 0 -60 28 -59 23 2 24 2 5 6 -26 5 -33 43 -8 43 8 0
15 5 15 10 0 6 -7 10 -15 10 -8 0 -15 7 -15 15 0 8 9 15 20 15 11 0 20 5 20
10 0 6 -11 10 -25 10 -24 0 -25 -3 -25 -60z"/>
<path d="M2993 920 c0 -36 1 -57 4 -47 5 21 23 23 23 2 0 -8 4 -15 9 -15 6 0
6 12 2 28 -4 15 -6 34 -3 42 4 13 3 13 -11 2 -14 -12 -16 -9 -20 20 -2 18 -4
4 -4 -32z"/>
<path d="M3370 970 c0 -5 5 -10 10 -10 6 0 10 5 10 10 0 6 -4 10 -10 10 -5 0
-10 -4 -10 -10z"/>
<path d="M3410 921 c0 -58 13 -82 23 -43 4 16 5 16 6 0 2 -37 19 -16 18 22 -2
40 -11 52 -20 28 -3 -7 -6 -1 -6 14 -1 15 -5 30 -11 33 -6 4 -10 -17 -10 -54z"/>
<path d="M3525 968 c-12 -40 -21 -108 -14 -108 5 0 9 7 9 15 0 20 20 19 37 -2
13 -16 13 -12 8 31 -4 27 -9 55 -12 62 -6 17 -22 18 -28 2z m18 -43 c4 -8 2
-17 -3 -20 -6 -4 -10 3 -10 14 0 25 6 27 13 6z"/>
<path d="M4080 920 c0 -41 4 -60 13 -60 8 0 11 17 9 60 -5 78 -22 78 -22 0z"/>
<path d="M4292 918 c1 -44 3 -52 5 -24 4 35 5 36 18 20 13 -18 14 -18 22 1 7
16 9 13 14 -20 5 -35 6 -32 8 23 1 62 -11 82 -23 40 l-7 -23 -11 23 c-19 38
-28 24 -26 -40z"/>
<path d="M4512 920 c0 -43 2 -58 8 -45 7 18 8 19 15 3 12 -29 24 -21 16 10 -4
15 -6 34 -3 42 4 13 3 13 -11 2 -14 -12 -16 -9 -20 20 -2 18 -4 4 -5 -32z"/>
<path d="M3768 949 c-7 -21 5 -89 16 -89 9 0 12 35 7 93 -1 11 -19 8 -23 -4z"/>
<path d="M2361 936 c-7 -8 -11 -27 -9 -43 2 -22 8 -28 28 -28 20 0 26 6 28 28
3 27 -12 57 -28 57 -4 0 -13 -6 -19 -14z m29 -36 c0 -16 -4 -30 -10 -30 -5 0
-10 14 -10 30 0 17 5 30 10 30 6 0 10 -13 10 -30z"/>
<path d="M2443 943 c-9 -3 -13 -24 -12 -61 1 -31 3 -49 6 -39 2 9 13 17 24 17
17 0 20 6 17 42 -3 41 -11 51 -35 41z m17 -43 c0 -16 -4 -30 -10 -30 -5 0 -10
14 -10 30 0 17 5 30 10 30 6 0 10 -13 10 -30z"/>
<path d="M2628 942 c-14 -3 -18 -13 -18 -43 0 -50 18 -51 23 -1 l4 37 1 -37
c2 -48 22 -50 22 -3 0 19 5 35 10 35 6 0 10 -16 10 -35 0 -19 5 -35 10 -35 14
0 12 67 -2 76 -15 9 -36 11 -60 6z"/>
<path d="M2722 937 c-9 -10 -8 -18 3 -33 19 -25 19 -35 -2 -27 -11 4 -14 3 -9
-5 4 -7 16 -12 27 -12 24 0 25 27 2 53 -17 20 -17 20 0 14 12 -5 17 -3 15 5
-6 18 -24 20 -36 5z"/>
<path d="M2787 943 c-12 -12 -7 -22 8 -17 8 4 15 2 15 -4 0 -5 -7 -12 -15 -16
-8 -3 -15 -15 -15 -26 0 -15 7 -20 25 -20 22 0 25 4 25 33 0 41 -24 70 -43 50z
m19 -70 c-10 -10 -19 5 -10 18 6 11 8 11 12 0 2 -7 1 -15 -2 -18z"/>
<path d="M3061 936 c-20 -24 -10 -70 16 -74 27 -4 41 35 23 67 -13 25 -23 26
-39 7z m29 -36 c0 -16 -4 -30 -10 -30 -5 0 -10 14 -10 30 0 17 5 30 10 30 6 0
10 -13 10 -30z"/>
<path d="M3138 943 c-13 -3 -18 -15 -18 -44 0 -21 5 -39 10 -39 6 0 10 16 10
35 0 19 5 35 10 35 6 0 10 -16 10 -35 0 -19 5 -35 11 -35 13 0 8 83 -6 86 -5
1 -18 0 -27 -3z"/>
<path d="M3200 929 c-18 -32 -4 -71 23 -67 26 4 36 50 16 74 -16 19 -26 18
-39 -7z m30 -29 c0 -16 -4 -30 -10 -30 -5 0 -10 14 -10 30 0 17 5 30 10 30 6
0 10 -13 10 -30z"/>
<path d="M3278 943 c-14 -3 -18 -15 -18 -44 0 -21 5 -39 10 -39 6 0 10 16 10
35 0 19 5 35 10 35 6 0 10 -16 10 -35 0 -47 18 -45 23 3 l4 37 1 -37 c1 -21 7
-38 13 -38 6 0 9 17 7 41 -3 37 -6 42 -28 44 -14 1 -33 0 -42 -2z"/>
<path d="M3608 942 c-14 -2 -18 -13 -18 -43 0 -21 5 -39 10 -39 6 0 10 15 10
34 0 19 6 36 13 39 17 6 5 14 -15 9z"/>
<path d="M3649 934 c-12 -15 -12 -16 9 -10 12 4 22 3 22 -2 0 -5 -9 -12 -20
-15 -12 -3 -20 -14 -20 -26 0 -16 6 -21 26 -21 23 0 25 3 22 42 -3 46 -18 58
-39 32z m31 -43 c0 -6 -4 -13 -10 -16 -5 -3 -10 1 -10 9 0 9 5 16 10 16 6 0
10 -4 10 -9z"/>
<path d="M3723 943 c-17 -6 -16 -28 2 -43 8 -7 15 -16 15 -21 0 -5 -7 -6 -15
-3 -21 9 -19 -3 6 -29 15 -15 20 -17 16 -6 -3 9 0 22 6 28 8 8 6 16 -6 29 -22
24 -22 33 1 25 15 -6 15 -5 3 10 -7 9 -14 17 -15 16 0 0 -7 -3 -13 -6z"/>
<path d="M3868 942 c-14 -2 -18 -13 -18 -43 0 -21 5 -39 10 -39 6 0 10 15 10
34 0 19 6 36 13 39 17 6 5 14 -15 9z"/>
<path d="M3928 942 c-14 -3 -18 -13 -16 -45 l1 -42 4 38 c5 47 23 49 23 2 0
-19 5 -35 10 -35 6 0 10 16 10 35 0 47 18 45 23 -2 4 -34 4 -33 3 6 -1 46 -11
53 -58 43z"/>
<path d="M4019 934 c-12 -15 -12 -16 9 -10 12 4 22 3 22 -2 0 -5 -9 -12 -20
-15 -12 -3 -20 -14 -20 -26 0 -16 6 -21 26 -21 23 0 25 3 22 42 -3 46 -18 58
-39 32z m31 -43 c0 -6 -4 -13 -10 -16 -5 -3 -10 1 -10 9 0 9 5 16 10 16 6 0
10 -4 10 -9z"/>
<path d="M4129 934 c-12 -15 -12 -16 9 -10 12 4 22 3 22 -2 0 -5 -9 -12 -21
-15 -28 -7 -21 -41 9 -45 22 -3 23 0 20 39 -3 47 -18 59 -39 33z m31 -43 c0
-6 -4 -13 -10 -16 -5 -3 -10 1 -10 9 0 9 5 16 10 16 6 0 10 -4 10 -9z"/>
<path d="M4208 942 c-14 -2 -18 -13 -18 -43 0 -21 5 -39 10 -39 6 0 10 15 10
34 0 19 6 36 13 39 17 6 5 14 -15 9z"/>
<path d="M4391 936 c-7 -8 -11 -27 -9 -43 2 -22 9 -28 28 -30 14 -1 18 0 8 3
-22 7 -24 24 -2 24 11 0 14 8 12 27 -4 31 -20 40 -37 19z m29 -16 c0 -5 -4
-10 -10 -10 -5 0 -10 5 -10 10 0 6 5 10 10 10 6 0 10 -4 10 -10z"/>
<path d="M4468 942 c-14 -2 -18 -13 -18 -43 0 -21 5 -39 10 -39 6 0 10 15 10
34 0 19 6 36 13 39 17 6 5 14 -15 9z"/>
<path d="M4583 943 c-18 -6 -17 -79 0 -86 8 -3 20 -1 28 4 11 7 11 9 -3 9 -10
0 -18 5 -18 10 0 6 7 10 15 10 9 0 15 9 15 24 0 25 -15 36 -37 29z"/>
<path d="M2532 903 c3 -33 7 -38 31 -41 26 -3 27 -1 27 37 0 23 -4 41 -10 41
-5 0 -10 -16 -10 -35 0 -19 -4 -35 -10 -35 -5 0 -10 16 -10 35 0 19 -5 35 -11
35 -6 0 -9 -16 -7 -37z"/>
<path d="M3370 900 c0 -22 5 -40 10 -40 6 0 10 18 10 40 0 22 -4 40 -10 40 -5
0 -10 -18 -10 -40z"/>
<path d="M3823 900 c0 -25 2 -35 4 -22 2 12 2 32 0 45 -2 12 -4 2 -4 -23z"/>
<path d="M4648 931 c12 -7 11 -14 -2 -40 l-17 -31 28 0 c21 0 24 3 14 9 -12 8
-13 14 -3 36 16 34 16 35 -10 35 -17 0 -19 -3 -10 -9z"/>
<path d="M4703 900 c0 -25 2 -35 4 -22 2 12 2 32 0 45 -2 12 -4 2 -4 -23z"/>
<path d="M1173 736 c-40 -18 -73 -70 -73 -115 0 -25 9 -42 39 -72 32 -33 45
-39 79 -39 53 0 108 45 118 97 17 91 -79 166 -163 129z"/>
<path d="M1185 426 c-44 -19 -85 -71 -85 -107 0 -68 54 -122 124 -122 34 0 45
6 79 43 36 38 39 46 34 82 -6 46 -37 84 -84 104 -38 16 -31 16 -68 0z"/>
</g>
</svg>
