<svg viewBox="0 0 1440 121" xmlns="http://www.w3.org/2000/svg" xmlns:xlink="http://www.w3.org/1999/xlink"><path fill="rgba(255, 255, 255, 1)" d="M 0 0 C 4.5 0 -13.5 269 -9 269 L -9 269 L -9 0 L 0 0 Z" stroke-width="0"></path> <path fill="rgba(255, 255, 255, 1)" d="M -10 269 C 149.5 269 149.5 172 309 172 L 309 172 L 309 0 L -10 0 Z" stroke-width="0"></path> <path fill="rgba(255, 255, 255, 1)" d="M 308 172 C 586 172 586 321 864 321 L 864 321 L 864 0 L 308 0 Z" stroke-width="0"></path><path fill="rgba(255, 255, 255, 1)" d="M 863 321 C 1148.5 321 1148.5 192 1434 192 L 1434 192 L 1434 0 L 863 0 Z" stroke-width="0"></path><path fill="rgba(255, 255, 255, 1)" d="M 1433 192 C 1434.5 192 1428.5 0 1430 0 L 1430 0 L 1430 0 L 1433 0 Z" stroke-width="0"></path></svg>